<svg id="Capa_1" data-name="Capa 1" xmlns="http://www.w3.org/2000/svg" viewBox="0 0 541.72 452.06"><defs><style>.cls-1,.cls-2,.cls-3{fill:#fff;stroke:#1d1d1b;stroke-linecap:round;stroke-linejoin:round;fill-rule:evenodd;}.cls-1{stroke-width:23.87px;}.cls-2{stroke-width:23.87px;}.cls-3{stroke-width:23.86px;}</style></defs><title>camara</title><path class="cls-1" d="M89.3,203.88H208.46A180.58,180.58,0,0,0,219,184.81c6-13.3,27.93-15.3,27.93-15.3H328s21.95,2,27.93,15.3a180.56,180.56,0,0,0,10.51,19.07h64.37V182.82a13.34,13.34,0,0,1,13.3-13.3h31.26a13.34,13.34,0,0,1,13.3,13.3V204a61,61,0,0,1,57.69,60.68V537a60.93,60.93,0,0,1-60.75,60.75H89.3A60.93,60.93,0,0,1,28.54,537V264.63A60.93,60.93,0,0,1,89.3,203.88Z" transform="translate(-16.61 -157.58)"/><path class="cls-2" d="M546.4,503.1V537a60.93,60.93,0,0,1-60.75,60.75H89.3A60.93,60.93,0,0,1,28.54,537V503.1Z" transform="translate(-16.61 -157.58)"/><path class="cls-1" d="M287.47,250.13A156.93,156.93,0,1,0,444.4,407.06,157,157,0,0,0,287.47,250.13Z" transform="translate(-16.61 -157.58)"/><path class="cls-3" d="M287.47,314.77a92.29,92.29,0,1,0,92.29,92.29,92.3,92.3,0,0,0-92.29-92.29Z" transform="translate(-16.61 -157.58)"/><path class="cls-1" d="M94.83,239H113A24,24,0,0,1,136.91,263h0A24,24,0,0,1,113,286.92H94.83A24,24,0,0,1,70.89,263h0A24,24,0,0,1,94.83,239Z" transform="translate(-16.61 -157.58)"/></svg>