<svg id="Capa_1" data-name="Capa 1" xmlns="http://www.w3.org/2000/svg" viewBox="0 0 500.39 415.93"><defs><style>.cls-1{fill:#1d1d1b;}</style></defs><title>camara</title><path class="cls-1" d="M530.23,206.87a63.3,63.3,0,0,0-36.74-19.06V173.58a18.83,18.83,0,0,0-18.8-18.8H445.24a18.83,18.83,0,0,0-18.8,18.8v13.57H375.59a145.51,145.51,0,0,1-7.7-14.26c-6.94-15.43-29-17.86-31.47-18.08l-.57,0H259.42l-.57,0c-2.49.23-24.53,2.66-31.47,18.08a143.16,143.16,0,0,1-7.71,14.26H111a63.58,63.58,0,0,0-63.51,63.51V507.2A63.58,63.58,0,0,0,111,570.7H484.33a63.58,63.58,0,0,0,63.51-63.51V250.66A63.17,63.17,0,0,0,530.23,206.87ZM111,199.7H223.21a6.27,6.27,0,0,0,5.34-3A171.58,171.58,0,0,0,238.83,178c3.3-7.34,16-10.19,20.91-10.71h75.8c5,.53,17.61,3.37,20.91,10.71a171.46,171.46,0,0,0,10.28,18.69,6.27,6.27,0,0,0,5.34,3h60.64a6.27,6.27,0,0,0,6.27-6.27V173.58a6.26,6.26,0,0,1,6.26-6.26h29.45a6.26,6.26,0,0,1,6.26,6.26v19.92a6.27,6.27,0,0,0,6,6.27,50.92,50.92,0,0,1,48.38,50.89V469H426.76a154.11,154.11,0,1,0-258.24,0H60V250.66A51,51,0,0,1,111,199.7Zm45.12,185.13c0-78.06,63.51-141.57,141.57-141.57S439.2,306.77,439.2,384.83,375.7,526.4,297.64,526.4,156.08,462.89,156.08,384.83ZM535.29,507.2a51,51,0,0,1-51,51H111a51,51,0,0,1-51-51V481.58H177.68a156.88,156.88,0,0,0,11,12.22,154.09,154.09,0,0,0,217.94,0,156.88,156.88,0,0,0,11-12.22H535.29Z" transform="translate(-47.45 -154.77)"/><path class="cls-1" d="M297.64,478a93.22,93.22,0,1,0-93.22-93.22A93.32,93.32,0,0,0,297.64,478Zm0-173.88A80.67,80.67,0,1,1,217,384.83,80.76,80.76,0,0,1,297.64,304.16Z" transform="translate(-47.45 -154.77)"/><path class="cls-1" d="M116.17,277.92h17.07a28.83,28.83,0,0,0,0-57.67H116.17a28.83,28.83,0,1,0,0,57.67Zm0-45.12h17.07a16.29,16.29,0,0,1,0,32.57H116.17a16.29,16.29,0,0,1,0-32.57Z" transform="translate(-47.45 -154.77)"/></svg>