<svg id="Capa_1" data-name="Capa 1" xmlns="http://www.w3.org/2000/svg" viewBox="0 0 228.31 48.94"><defs><style>.cls-1{fill:#1d1d1b;}.cls-2{fill:#6b7cbc;}</style></defs><title>DARIAS-LAB</title><path class="cls-1" d="M184.48,165.51H195.1a15.36,15.36,0,0,1,7.09,1.58,11.64,11.64,0,0,1,4.81,4.45,13.48,13.48,0,0,1,0,13.14,11.64,11.64,0,0,1-4.81,4.45,15.35,15.35,0,0,1-7.09,1.58H184.48Zm10.4,22.07a11.66,11.66,0,0,0,5.38-1.19,8.59,8.59,0,0,0,3.58-3.33,10.35,10.35,0,0,0,0-9.9,8.59,8.59,0,0,0-3.58-3.33,11.66,11.66,0,0,0-5.38-1.19h-6.8v18.94Z" transform="translate(-184.48 -163.78)"/><path class="cls-1" d="M229.91,184.41H216.52l-2.77,6.3H210l11.41-25.2H225l11.45,25.2h-3.78Zm-1.26-2.88-5.44-12.35-5.44,12.35Z" transform="translate(-184.48 -163.78)"/><path class="cls-1" d="M257.05,190.71,251.61,183q-1,.07-1.58.07H243.8v7.67h-3.6v-25.2H250a11.67,11.67,0,0,1,7.7,2.34,7.94,7.94,0,0,1,2.81,6.44,8.43,8.43,0,0,1-1.44,5,8.14,8.14,0,0,1-4.1,3l6,8.46Zm-1.91-12.2a5.14,5.14,0,0,0,1.8-4.21,5.08,5.08,0,0,0-1.8-4.19,8.13,8.13,0,0,0-5.22-1.46H243.8V180h6.12A8.05,8.05,0,0,0,255.14,178.51Z" transform="translate(-184.48 -163.78)"/><path class="cls-1" d="M266.37,165.51H270v25.2h-3.6Z" transform="translate(-184.48 -163.78)"/><path class="cls-1" d="M293.59,184.41H280.2l-2.77,6.3h-3.71l11.41-25.2h3.56l11.45,25.2h-3.78Zm-1.26-2.88-5.44-12.35-5.44,12.35Z" transform="translate(-184.48 -163.78)"/><path class="cls-1" d="M304.73,164.49a2.44,2.44,0,0,1,.67,1.75,5.28,5.28,0,0,1-.11,1.06,11.3,11.3,0,0,1-.47,1.49l-1.73,5h-2.27l1.33-5.36a2.25,2.25,0,0,1-1.1-.85,2.36,2.36,0,0,1-.41-1.39,2.39,2.39,0,0,1,.68-1.76,2.34,2.34,0,0,1,1.73-.68A2.21,2.21,0,0,1,304.73,164.49Z" transform="translate(-184.48 -163.78)"/><path class="cls-1" d="M313.08,190.12a11.26,11.26,0,0,1-4.16-2.29l1.33-2.81a11,11,0,0,0,3.69,2.11,13.56,13.56,0,0,0,4.63.81,8.34,8.34,0,0,0,4.68-1.06,3.27,3.27,0,0,0,1.55-2.83,2.78,2.78,0,0,0-.85-2.11,5.65,5.65,0,0,0-2.09-1.24q-1.24-.43-3.51-1a36,36,0,0,1-4.59-1.37,7.58,7.58,0,0,1-3-2.11,5.62,5.62,0,0,1-1.24-3.83,6.49,6.49,0,0,1,1.06-3.64,7.29,7.29,0,0,1,3.22-2.59,13.07,13.07,0,0,1,5.36-1,17,17,0,0,1,4.39.58,11.68,11.68,0,0,1,3.71,1.66l-1.19,2.88a13.06,13.06,0,0,0-3.38-1.53,12.65,12.65,0,0,0-3.53-.52,7.77,7.77,0,0,0-4.59,1.12,3.42,3.42,0,0,0-1.53,2.88,2.75,2.75,0,0,0,.86,2.11,6,6,0,0,0,2.14,1.26,33.3,33.3,0,0,0,3.47,1,35.25,35.25,0,0,1,4.57,1.37,7.7,7.7,0,0,1,3,2.09,5.5,5.5,0,0,1,1.24,3.78,6.43,6.43,0,0,1-1.08,3.62A7.23,7.23,0,0,1,324,190a13.55,13.55,0,0,1-5.4,1A17.24,17.24,0,0,1,313.08,190.12Z" transform="translate(-184.48 -163.78)"/><path class="cls-1" d="M343.27,165.51h3.6v22.07h13.64v3.13H343.27Z" transform="translate(-184.48 -163.78)"/><path class="cls-1" d="M380.82,184.41H367.42l-2.77,6.3h-3.71l11.41-25.2h3.56l11.45,25.2h-3.78Zm-1.26-2.88-5.44-12.35-5.44,12.35Z" transform="translate(-184.48 -163.78)"/><path class="cls-1" d="M411.53,179.86a6.35,6.35,0,0,1,1.26,4,5.82,5.82,0,0,1-2.47,5q-2.47,1.76-7.18,1.76h-12v-25.2h11.3a11.15,11.15,0,0,1,6.68,1.73,5.61,5.61,0,0,1,2.36,4.79,6.22,6.22,0,0,1-.92,3.42,6,6,0,0,1-2.47,2.2A6.47,6.47,0,0,1,411.53,179.86Zm-16.81-11.43v8.06h7.38a7.5,7.5,0,0,0,4.27-1,3.77,3.77,0,0,0,0-6,7.5,7.5,0,0,0-4.27-1Zm12.89,18.36a3.51,3.51,0,0,0,1.55-3.17q0-4.21-6.16-4.21h-8.28v8.39H403A8.53,8.53,0,0,0,407.6,186.79Z" transform="translate(-184.48 -163.78)"/><path class="cls-2" d="M237.27,203.09a3.62,3.62,0,0,1,0,5.27,4.77,4.77,0,0,1-3.15,1H231.3v3.31h-1.11v-10.5h3.93A4.74,4.74,0,0,1,237.27,203.09Zm-.79,4.57a2.36,2.36,0,0,0,.82-1.93,2.4,2.4,0,0,0-.82-2,3.66,3.66,0,0,0-2.39-.68H231.3v5.25h2.79A3.66,3.66,0,0,0,236.47,207.66Z" transform="translate(-184.48 -163.78)"/><path class="cls-2" d="M251.23,202.13v10.5h-1.09v-4.85h-6.57v4.85h-1.11v-10.5h1.11v4.68h6.57v-4.68Z" transform="translate(-184.48 -163.78)"/><path class="cls-2" d="M258.06,212a5.09,5.09,0,0,1-2-1.91,5.58,5.58,0,0,1,0-5.46,5.09,5.09,0,0,1,2-1.91,6.08,6.08,0,0,1,5.64,0,5.11,5.11,0,0,1,2,1.91,5.56,5.56,0,0,1,0,5.47,5.1,5.1,0,0,1-2,1.91,6.08,6.08,0,0,1-5.64,0Zm5.08-.85a4.07,4.07,0,0,0,1.58-1.56,4.64,4.64,0,0,0,0-4.46,4.07,4.07,0,0,0-1.58-1.56,4.8,4.8,0,0,0-4.51,0,4.11,4.11,0,0,0-1.59,1.56,4.58,4.58,0,0,0,0,4.46,4.11,4.11,0,0,0,1.59,1.56,4.8,4.8,0,0,0,4.51,0Z" transform="translate(-184.48 -163.78)"/><path class="cls-2" d="M272.43,203.09h-3.69v-1h8.49v1h-3.69v9.54h-1.11Z" transform="translate(-184.48 -163.78)"/><path class="cls-2" d="M282.26,212a5.09,5.09,0,0,1-2-1.91,5.58,5.58,0,0,1,0-5.46,5.09,5.09,0,0,1,2-1.91,6.08,6.08,0,0,1,5.64,0,5.11,5.11,0,0,1,2,1.91,5.56,5.56,0,0,1,0,5.47,5.1,5.1,0,0,1-2,1.91,6.08,6.08,0,0,1-5.64,0Zm5.08-.85a4.07,4.07,0,0,0,1.58-1.56,4.64,4.64,0,0,0,0-4.46,4.07,4.07,0,0,0-1.58-1.56,4.8,4.8,0,0,0-4.51,0,4.11,4.11,0,0,0-1.59,1.56,4.58,4.58,0,0,0,0,4.46,4.11,4.11,0,0,0,1.59,1.56,4.8,4.8,0,0,0,4.51,0Z" transform="translate(-184.48 -163.78)"/><path class="cls-2" d="M302.13,207.38h1.07v4a5.13,5.13,0,0,1-1.74,1,6.47,6.47,0,0,1-2.12.34,5.8,5.8,0,0,1-2.83-.69,5.09,5.09,0,0,1-2-1.91,5.56,5.56,0,0,1,0-5.47,5.09,5.09,0,0,1,2-1.91,5.84,5.84,0,0,1,2.85-.69,6.16,6.16,0,0,1,2.21.38,4.38,4.38,0,0,1,1.69,1.13l-.69.71A4.32,4.32,0,0,0,299.4,203a4.72,4.72,0,0,0-2.3.56,4.13,4.13,0,0,0-1.61,1.56,4.52,4.52,0,0,0,0,4.45,4.22,4.22,0,0,0,1.6,1.56,5,5,0,0,0,5-.24Z" transform="translate(-184.48 -163.78)"/><path class="cls-2" d="M315.14,212.63l-2.4-3.37a7.68,7.68,0,0,1-.84,0h-2.82v3.33H308v-10.5h3.93a4.74,4.74,0,0,1,3.15,1,3.27,3.27,0,0,1,1.14,2.64,3.26,3.26,0,0,1-2.4,3.3l2.57,3.6Zm-.88-5a2.71,2.71,0,0,0,0-3.89,3.65,3.65,0,0,0-2.38-.68h-2.79v5.27h2.79A3.63,3.63,0,0,0,314.26,207.67Z" transform="translate(-184.48 -163.78)"/><path class="cls-2" d="M327.05,209.82H321.2l-1.26,2.81h-1.16l4.8-10.5h1.09l4.8,10.5h-1.17Zm-.41-.9-2.52-5.64-2.52,5.64Z" transform="translate(-184.48 -163.78)"/><path class="cls-2" d="M340,203.09a3.62,3.62,0,0,1,0,5.27,4.77,4.77,0,0,1-3.15,1H334v3.31h-1.11v-10.5h3.93A4.75,4.75,0,0,1,340,203.09Zm-.79,4.57a2.36,2.36,0,0,0,.82-1.93,2.4,2.4,0,0,0-.82-2,3.66,3.66,0,0,0-2.39-.68H334v5.25h2.79A3.66,3.66,0,0,0,339.16,207.66Z" transform="translate(-184.48 -163.78)"/><path class="cls-2" d="M353.92,202.13v10.5h-1.09v-4.85h-6.57v4.85h-1.11v-10.5h1.11v4.68h6.57v-4.68Z" transform="translate(-184.48 -163.78)"/><path class="cls-2" d="M362.59,209v3.63h-1.1V209l-4.2-6.87h1.18l3.6,5.9,3.6-5.9h1.11Z" transform="translate(-184.48 -163.78)"/></svg>